# xmcd
#
# Track frame offsets:
#	150
#	12614
#	23469
#	34879
#	44134
#	56332
#	69045
#	80511
#	90232
#	99997
#	113200
#
# Disc length: 1631 seconds
#
# Revision: 0
# Processed by: cddbd v1.5.2PL0 Copyright (c) Steve Scherf et al.
# Submitted via: dBpowerAMP V4.0
#
DISCID=7d065d0b
DTITLE=Bobby Edwards - You're The Reason
DYEAR=2011
DGENRE=Country
TTITLE0=You're The Reason
TTITLE1=Don't Pretend
TTITLE2=It's A Sin
TTITLE3=Loving You Is Killing Me
TTITLE4=Bring My Baby Home
TTITLE5=Each Time You Cross My Mind
TTITLE6=I'm Sorry To See Me Go
TTITLE7=Just Ain't My Day
TTITLE8=Once A Fool (Always A Fool)
TTITLE9=Part Time Sweetheart
TTITLE10=Walker Town
EXTD=
EXTT0=
EXTT1=
EXTT2=
EXTT3=
EXTT4=
EXTT5=
EXTT6=
EXTT7=
EXTT8=
EXTT9=
EXTT10=
PLAYORDER=
